<?xml version="1.0" encoding="UTF-8"?>
<svg xmlns="http://www.w3.org/2000/svg" xmlns:xlink="http://www.w3.org/1999/xlink" xml:space="preserve" width="2500px" height="2500px" version="1.1" style="shape-rendering:geometricPrecision; text-rendering:geometricPrecision; image-rendering:optimizeQuality; fill-rule:evenodd; clip-rule:evenodd" viewBox="0 0 692.85 692.85">
 <defs>
  <style type="text/css">

    .fil0 {fill:#2962FF}
    .fil1 {fill:white;fill-rule:nonzero}

  </style>
 </defs>
 <g id="Layer_x0020_1">
  <metadata id="CorelCorpID_0Corel-Layer"></metadata>
  <rect class="fil0" width="692.85" height="692.85" rx="148.7" ry="148.7"></rect>
  <path class="fil1" d="M392.42 240.16l141.64 0c47.24,0 70.84,23.64 70.84,70.84l0 70.85c0,47.25 -23.6,70.84 -70.84,70.84l-141.08 0 -19.18 -42.53 -84.31 0 18.97 -42.17 46.32 0 -25.49 -56.53 -64.13 141.23 -25.21 -55.91 67.7 -156.57 43.46 0 73.47 169.98 103.53 0c22.68,0 34,-11.17 34,-33.56l0 -60.5c0,-22.29 -11.27,-33.47 -33.86,-33.47l-93.03 0 0 123.39 -8.38 0 -34.42 -79.63c0,-28.76 0,-57.5 0,-86.26z"></path>
  <polygon class="fil1" points="87.95,452.69 179.83,240.21 223.29,240.21 263.17,332.48 237.61,391.6 201.47,311.46 137.9,452.69 "></polygon>
 </g>
</svg>
